@startuml

    !include lexakai.theme
    
    title "com.telenav.kivakit.core.messaging.repeaters"
    
    interface Repeater
    
    Multicaster <|-- BaseRepeater
    Repeater <|-- BaseRepeater
    class BaseRepeater
    {
        --(constructors)--
        #BaseRepeater()
        #BaseRepeater(String)
        +BaseRepeater(Class<?>)
        +BaseRepeater(String, Class<?>)
    }
    
    interface Mixin
    interface Repeater
    Repeater <|-- RepeaterMixin
    Mixin <|-- RepeaterMixin
    interface RepeaterMixin
    {
        --
        +Repeater repeater()
    }
    
@enduml

