@startuml

    !include lexakai.theme
    
    title "com.telenav.kivakit.kernel.data.conversion.string"
    
    abstract BaseConverter
    
    interface StringConverter
    
    BaseConverter <|-- BaseStringConverter
    StringConverter <|-- BaseStringConverter
    abstract class BaseStringConverter<Value>
    {
        --(collection)--
        +BaseStringConverter<Value> allowEmpty(boolean allowEmpty)
        +boolean allowsEmpty()
        --(extension points)--
        #String onToString(Value)
        #Value onToValue(String value)
    }
    
    interface TwoWayConverter<String,Value>
    TwoWayConverter <|-- StringConverter
    interface StringConverter<Value>
    {
        --(collection)--
        +ObjectList<Value> asObjectList(StringList)
        +StringList asStringList(ObjectList<Value>)
    }
    
@enduml

