
@startuml

    !include lexakai.theme
    
    title "com.telenav.kivakit.core.language.reflection.accessors"
    
    interface Getter
    interface Setter
    
    
    Setter <|-- FieldSetter
    class FieldSetter
    {
        --(constructors)--
        +FieldSetter(Field)
        --
        +Field field()
    }
    
    interface Named
    Named <|-- Getter
    interface Getter
    {
        --
        +T annotation(Class<T> annotationType)
        +Object get(Object)
        +Type<?> type()
        --(checks)--
        +boolean hasAnnotation(Class<? extends Annotation>)
    }
    
    Getter <|-- MethodGetter
    class MethodGetter
    {
        --(constructors)--
        +MethodGetter(Method)
        --
        +Method method()
    }
    
    Setter <|-- MethodSetter
    class MethodSetter
    {
        --(constructors)--
        +MethodSetter(Method)
        --
        +Method method()
    }
    
    interface Named
    Named <|-- Setter
    interface Setter
    {
        --
        +T annotation(Class<T> annotationType)
        +Type<?> type()
        --(checks)--
        +boolean hasAnnotation(Class<? extends Annotation>)
        --(messaging)--
        +ReflectionProblem set(Object, Object value)
    }
    
@enduml

