@startuml

    !include lexakai.theme
    
    title "com.telenav.kivakit.kernel.interfaces.io"
    
    interface ByteSized
    {
        --(math)--
        +boolean isLargerThan(ByteSized that)
        +boolean isSmallerThan(ByteSized that)
        --(primitive)--
        +Bytes sizeInBytes()
    }
    
    interface AutoCloseable
    AutoCloseable <|-- Closeable
    interface Closeable
    {
    }
    
    interface Flushable
    {
        --(io)--
        +void flush(Duration maximumWaitTime)
        +void flush()
    }
    
    interface Openable
    {
        --
        +void open()
    }
    
    interface ByteSized
    ByteSized <|-- Readable
    interface Readable
    {
        --(checks)--
        +boolean isReadable()
        --(read)--
        +InputStream onOpenForReading()
        +InputStream openForReading()
        +InputStream openForReading(ProgressReporter)
    }
    
    interface Writable
    {
        --(checks)--
        +Boolean isWritable()
        --(write)--
        +OutputStream onOpenForWriting()
        +OutputStream openForWriting()
        +OutputStream openForWriting(ProgressReporter)
    }
    
@enduml

